<?xml version="1.0" encoding="utf-8"?>
<!-- Generator: Adobe Illustrator 23.0.5, SVG Export Plug-In . SVG Version: 6.00 Build 0)  -->
<svg version="1.1" id="Layer_1" xmlns="http://www.w3.org/2000/svg" xmlns:xlink="http://www.w3.org/1999/xlink" x="0px" y="0px"
	 viewBox="0 0 46.7 11.2" style="enable-background:new 0 0 46.7 11.2;" xml:space="preserve">
<style type="text/css">
	.st0{display:none;}
	.st1{display:inline;fill:#2042E3;}
	.st2{display:inline;fill:#081828;}
	.st3{display:inline;fill:#FFFFFF;}
	.st4{fill:#3E8830;}
	.st5{display:inline;fill:#3E8830;}
	.st6{display:inline;}
</style>
<title>sss</title>
<g class="st0">
	<path class="st1" d="M17.6,11.2H2.5C1.2,11.2,0,10.1,0,8.8l0,0V2.5C0,1.1,1.1,0,2.5,0c0,0,0,0,0.1,0h22l-2.7,8.2
		C21.2,10,19.5,11.2,17.6,11.2z"/>
	<path class="st2" d="M44.2,11.2h-22L24.9,3c0.6-1.8,2.3-3,4.2-3h15.1c1.4,0,2.5,1.1,2.5,2.5l0,0v6.3C46.7,10.2,45.6,11.2,44.2,11.2
		z"/>
	<path class="st3" d="M5.2,7.7C4.9,7.6,4.7,7.4,4.5,7.2L5,6.6c0.2,0.3,0.6,0.5,1,0.5c0.5,0,0.7-0.3,0.7-0.9V3.7H5.1V3h2.6v3.2
		c0,0.5-0.1,0.9-0.4,1.3C6.9,7.7,6.5,7.9,6,7.9C5.7,7.9,5.4,7.8,5.2,7.7z"/>
	<path class="st3" d="M9.4,7.6C9.1,7.5,8.9,7.2,8.7,7C8.6,6.6,8.5,6.3,8.5,6c0-0.4,0.1-0.7,0.3-1s0.4-0.5,0.7-0.7
		c0.6-0.3,1.4-0.3,2,0C11.7,4.4,12,4.7,12.1,5c0.3,0.6,0.3,1.3,0,1.9c-0.2,0.3-0.4,0.5-0.7,0.7C10.8,7.8,10.1,7.8,9.4,7.6L9.4,7.6z
		 M11.2,6.8c0.2-0.2,0.3-0.5,0.3-0.8s-0.1-0.6-0.3-0.8C11,5,10.7,4.9,10.4,4.9S9.8,5,9.6,5.2C9.5,5.4,9.4,5.7,9.4,6s0.1,0.6,0.3,0.8
		c0.2,0.2,0.5,0.3,0.8,0.3C10.7,7.1,11,7,11.2,6.8L11.2,6.8z"/>
	<path class="st3" d="M16.1,4.3c0.3,0.2,0.5,0.4,0.7,0.7C17,5.3,17,5.7,17,6s-0.1,0.7-0.2,1c-0.2,0.3-0.4,0.5-0.7,0.7
		c-0.3,0.2-0.6,0.2-1,0.2c-0.2,0-0.5-0.1-0.7-0.2S14,7.5,13.9,7.3v0.5h-0.8V2.7H14v1.9c0.1-0.2,0.3-0.3,0.5-0.4s0.4-0.1,0.6-0.1
		C15.5,4.1,15.8,4.2,16.1,4.3z M15.9,6.8c0.2-0.2,0.3-0.5,0.3-0.8s-0.1-0.6-0.3-0.8c-0.2-0.2-0.5-0.3-0.8-0.3c-0.2,0-0.4,0-0.6,0.1
		c-0.2,0.1-0.3,0.2-0.4,0.4c-0.2,0.4-0.2,0.8,0,1.2c0.1,0.2,0.2,0.3,0.4,0.4s0.4,0.1,0.6,0.1C15.4,7.1,15.7,7,15.9,6.8z"/>
	<path class="st3" d="M30.6,5.4h0.8v1.9c-0.3,0.2-0.5,0.4-0.9,0.4c-0.3,0.1-0.7,0.2-1,0.2c-0.5,0-0.9-0.1-1.3-0.3
		c-0.4-0.2-0.7-0.5-0.9-0.9C27.1,6.3,27,5.9,27,5.4c0-0.4,0.1-0.9,0.3-1.3c0.2-0.4,0.5-0.7,0.9-0.9C28.7,3.1,29.1,3,29.6,3
		c0.4,0,0.7,0,1.1,0.2c0.3,0.1,0.6,0.3,0.8,0.6L31,4.3c-0.3-0.4-0.8-0.6-1.3-0.5c-0.3,0-0.6,0.1-0.9,0.2s-0.5,0.3-0.6,0.6
		C28.1,4.9,28,5.2,28,5.5s0.1,0.6,0.2,0.9s0.4,0.5,0.6,0.6c0.2,0,0.5,0.1,0.8,0.1c0.3,0,0.7-0.1,1-0.3V5.4z"/>
	<path class="st3" d="M34.6,4.1v0.8h-0.2c-0.3,0-0.6,0.1-0.8,0.3c-0.2,0.2-0.3,0.5-0.3,0.8v1.8h-0.9V4.2h0.8v0.6
		C33.6,4.3,34.1,4.1,34.6,4.1z"/>
	<path class="st3" d="M35.4,3.4c-0.2-0.2-0.2-0.5,0-0.7l0,0c0.1-0.1,0.2-0.2,0.4-0.2c0.1,0,0.3,0,0.4,0.1c0.1,0.1,0.2,0.2,0.2,0.3
		s0,0.3-0.2,0.4c-0.1,0.1-0.2,0.2-0.4,0.2C35.7,3.6,35.5,3.5,35.4,3.4z M35.4,4.2h0.8v3.6h-0.8V4.2z"/>
	<path class="st3" d="M40.9,2.7v5.1h-0.8V7.3c-0.1,0.2-0.3,0.3-0.5,0.4s-0.4,0.1-0.7,0.1S38.2,7.7,38,7.6c-0.3-0.2-0.5-0.4-0.7-0.7
		C37.1,6.7,37,6.3,37,6s0.1-0.7,0.2-1c0.2-0.3,0.4-0.5,0.7-0.7s0.6-0.2,0.9-0.2c0.2,0,0.4,0,0.7,0.1c0.2,0.1,0.4,0.2,0.5,0.4V2.7
		H40.9z M39.5,7c0.2-0.1,0.3-0.2,0.4-0.4c0.2-0.4,0.2-0.8,0-1.2c-0.1-0.2-0.2-0.3-0.4-0.4c-0.3-0.2-0.8-0.2-1.1,0
		c-0.2,0.1-0.3,0.2-0.4,0.4c-0.2,0.4-0.2,0.8,0,1.2c0.1,0.2,0.2,0.3,0.4,0.4C38.8,7.2,39.2,7.2,39.5,7z"/>
	<path class="st3" d="M42.3,7.7c-0.2-0.1-0.5-0.2-0.7-0.3l0.3-0.7C42.1,6.9,42.3,7,42.5,7c0.2,0.1,0.4,0.1,0.7,0.1
		C43.7,7.1,44,7,44,6.7c0-0.1-0.1-0.2-0.2-0.3c-0.2-0.1-0.4-0.1-0.6-0.1c-0.2,0-0.5-0.1-0.7-0.2S42.1,5.9,42,5.8
		c-0.1-0.2-0.2-0.4-0.2-0.6c0-0.3,0.2-0.6,0.4-0.8c0.3-0.2,0.8-0.3,1.2-0.3c0.3,0,0.5,0,0.8,0.1c0.2,0,0.4,0.1,0.6,0.2l-0.3,0.7
		c-0.3-0.2-0.6-0.3-1-0.3c-0.2,0-0.4,0-0.6,0.1c-0.1,0.1-0.2,0.2-0.2,0.3c0,0.1,0.1,0.3,0.2,0.3c0.2,0.1,0.4,0.1,0.6,0.2
		c0.2,0,0.5,0.1,0.7,0.2s0.3,0.2,0.5,0.3c0.1,0.2,0.2,0.4,0.2,0.6c0,0.3-0.2,0.6-0.4,0.8c-0.4,0.2-0.8,0.3-1.2,0.3
		C42.9,7.9,42.6,7.8,42.3,7.7z"/>
</g>
<g>
	<g>
		<g>
			<ellipse class="st4" cx="6.7" cy="0.5" rx="0.5" ry="0.5"/>
			<ellipse class="st4" cx="6.7" cy="3" rx="0.4" ry="0.5"/>
			<ellipse class="st4" cx="6.7" cy="5.6" rx="0.6" ry="0.6"/>
			<ellipse class="st4" cx="6.7" cy="10.6" rx="0.6" ry="0.6"/>
			<ellipse class="st4" cx="6.7" cy="8.1" rx="0.4" ry="0.5"/>
			<rect x="6.6" y="0.9" class="st4" width="0.2" height="9.7"/>
		</g>
		<g>
			<ellipse class="st4" cx="9" cy="1.7" rx="0.4" ry="0.4"/>
			<ellipse class="st4" cx="11.2" cy="3" rx="0.6" ry="0.6"/>
			<ellipse class="st4" cx="11.2" cy="5.6" rx="0.4" ry="0.4"/>
			<polygon class="st4" points="9.2,1.8 11.2,2.8 10.6,2.8 8.9,1.9 			"/>
			<polygon class="st4" points="11.3,3.3 11.3,5.2 11.1,5.2 11.1,3.6 			"/>
		</g>
		<g>
			<ellipse class="st4" cx="4.4" cy="1.7" rx="0.4" ry="0.4"/>
			<ellipse class="st4" cx="2.1" cy="3" rx="0.6" ry="0.6"/>
			<ellipse class="st4" cx="2.1" cy="5.6" rx="0.4" ry="0.4"/>
			<polygon class="st4" points="4.1,1.8 2.2,2.8 2.7,2.8 4.4,1.9 			"/>
			<polygon class="st4" points="2,3.3 2.1,5.2 2.3,5.1 2.3,3.6 			"/>
		</g>
		<g>
			<ellipse cx="9" cy="4.2" rx="0.5" ry="0.6"/>
			<ellipse cx="8.9" cy="6.7" rx="0.5" ry="0.7"/>
			<ellipse cx="8.9" cy="9.4" rx="0.4" ry="0.4"/>
			<ellipse cx="11.3" cy="8.1" rx="0.6" ry="0.5"/>
			<polygon points="8.8,4.4 8.9,9.4 9.1,9.4 9.1,4.1 			"/>
			<polygon points="10.9,8.1 8.8,9.3 8.9,9.6 11.1,8.3 			"/>
		</g>
		<g>
			<ellipse cx="4.3" cy="4.2" rx="0.5" ry="0.6"/>
			<ellipse cx="4.4" cy="6.7" rx="0.5" ry="0.7"/>
			<ellipse cx="4.4" cy="9.4" rx="0.4" ry="0.4"/>
			<ellipse cx="2.1" cy="8" rx="0.6" ry="0.5"/>
			<polygon points="4.5,4.4 4.5,9.4 4.2,9.4 4.2,4.1 			"/>
			<polygon points="2.5,8 4.5,9.3 4.4,9.6 2.3,8.3 			"/>
		</g>
	</g>
	<g class="st0">
		<path class="st5" d="M13.6,5.9h-0.5V3h0.5V5.9z"/>
		<path class="st5" d="M17.8,5.9h-0.5V4.2l-0.9,1.7L16.3,6h-0.1h-0.1L16,5.9l-0.9-1.7V6h-0.5V3.2c0-0.1,0-0.1,0.1-0.2
			s0.1-0.1,0.1-0.1h0.1H15h0.1c0,0,0,0,0.1,0.1L16,5.2L17.3,3c0-0.1,0.1-0.1,0.1-0.1c0.1,0,0.1,0,0.2,0s0.1,0,0.1,0.1
			s0.1,0.1,0.1,0.2C17.8,3.2,17.8,5.9,17.8,5.9z"/>
		<path class="st5" d="M21.3,5.1c0,0.1,0,0.2,0,0.3c0,0.1-0.1,0.2-0.1,0.2L21,5.7c0,0-0.1,0.1-0.2,0.1s-0.1,0.1-0.2,0.1
			s-0.1,0-0.2,0h-2.1V5.4h2.1c0.1,0,0.2,0,0.2-0.1c0.1-0.1,0.1-0.1,0.1-0.2V5c0,0,0-0.1-0.1-0.1l-0.1-0.1h-0.1h-1.2
			c-0.1,0-0.2,0-0.3,0s-0.2-0.1-0.3-0.2c-0.1-0.1-0.2-0.2-0.2-0.3c-0.1-0.1-0.1-0.2-0.1-0.4c0-0.2,0-0.3,0.1-0.4
			c0.1-0.1,0.1-0.2,0.2-0.3C18.7,3.1,18.8,3,18.9,3s0.2,0,0.3,0H21v0.5h-1.8c-0.1,0-0.2,0-0.2,0.1c-0.1,0.1-0.1,0.1-0.1,0.2
			c0,0.1,0,0.2,0.1,0.2c0.1,0.1,0.1,0.1,0.2,0.1h1.2l0,0c0.1,0,0.1,0,0.2,0s0.1,0,0.2,0.1c0.1,0,0.1,0.1,0.2,0.1s0.1,0.1,0.2,0.2
			c0,0.1,0.1,0.1,0.1,0.2S21.3,5,21.3,5.1z"/>
		<path class="st5" d="M24.1,5.2c0,0.1,0,0.2,0,0.3c0,0.1-0.1,0.1-0.1,0.2s-0.1,0.1-0.1,0.1c-0.1,0-0.1,0.1-0.2,0.1s-0.1,0-0.2,0.1
			s-0.1,0-0.2,0h-1c-0.1,0-0.2,0-0.2,0c-0.1,0-0.2-0.1-0.2-0.1c-0.1-0.1-0.1-0.1-0.2-0.2s-0.1-0.2-0.1-0.4V4.5c0-0.1,0-0.3,0.1-0.4
			s0.1-0.2,0.2-0.2c0.1-0.1,0.2-0.1,0.2-0.1c0.1,0,0.2,0,0.2,0h1c0.1,0,0.3,0,0.3,0.1s0.3,0,0.4,0.1s0.1,0.2,0.1,0.2
			c0,0.1,0,0.2,0,0.2V5.2z M23.6,4.5c0-0.1,0-0.1-0.1-0.2s-0.1-0.1-0.2-0.1h-1c-0.1,0-0.1,0-0.2,0.1c0,0-0.1,0.1-0.1,0.2v0.7
			c0,0.1,0,0.1,0.1,0.2c0,0,0.1,0.1,0.2,0.1h1c0.1,0,0.1,0,0.2-0.1c0,0,0.1-0.1,0.1-0.2V4.5z"/>
		<path class="st5" d="M25.6,5.9h-0.2c-0.1,0-0.2,0-0.2,0c-0.1,0-0.2-0.1-0.2-0.1c-0.1-0.1-0.1-0.1-0.2-0.2s-0.1-0.2-0.1-0.4V2.7
			h0.5v2.4c0,0.1,0,0.1,0.1,0.2c0,0,0.1,0.1,0.2,0.1h0.2L25.6,5.9L25.6,5.9z"/>
		<path class="st5" d="M28.5,5.7L28.5,5.7c0,0.1,0,0.2-0.1,0.2c0,0-0.1,0-0.1,0.1h-0.1H27c-0.1,0-0.1,0-0.2,0s-0.1,0-0.2-0.1
			s-0.1-0.1-0.2-0.1s-0.1-0.1-0.2-0.2s-0.1-0.2-0.1-0.3c0-0.1,0-0.2,0-0.3V3.7h0.5v1.2c0,0.1,0,0.1,0,0.2s0.1,0.1,0.1,0.1l0.1,0.1
			c0.1,0,0.1,0,0.2,0h0.9V3.7h0.5v2H28.5z"/>
		<path class="st5" d="M31.2,5.9h-1.4c-0.1,0-0.2,0-0.2,0c-0.1,0-0.2-0.1-0.2-0.1c-0.1-0.1-0.1-0.1-0.2-0.2S29,5.3,29,5.2V4.5
			c0-0.1,0-0.1,0-0.2s0-0.1,0.1-0.2c0-0.1,0.1-0.1,0.1-0.2c0-0.1,0.1-0.1,0.1-0.1c0.1,0,0.1-0.1,0.2-0.1c0.1,0,0.2,0,0.2,0h1.4v0.5
			h-1.4c-0.1,0-0.1,0-0.2,0.1c0,0-0.1,0.1-0.1,0.2v0.7c0,0.1,0,0.1,0.1,0.2c0,0,0.1,0.1,0.2,0.1h1.4v0.4H31.2z"/>
		<path class="st5" d="M32.2,3.2h-0.5V2.7h0.5V3.2z M32.2,5.9h-0.5V3.7h0.5V5.9z"/>
		<path class="st5" d="M35.2,5.2c0,0.1,0,0.2,0,0.3c0,0.1-0.1,0.1-0.1,0.2S35,5.8,35,5.8c-0.1,0-0.1,0.1-0.2,0.1
			c-0.1,0-0.1,0-0.2,0.1c-0.1,0-0.1,0-0.2,0h-1c-0.1,0-0.2,0-0.2,0C33.1,6,33,5.9,33,5.9c-0.1-0.1-0.1-0.1-0.2-0.2s-0.1-0.2-0.1-0.4
			V4.5c0-0.1,0-0.3,0.1-0.4s0.1-0.2,0.2-0.2c0.1-0.1,0.2-0.1,0.2-0.1c0.1,0,0.2,0,0.2,0h1c0.1,0,0.3,0,0.3,0.1s0.3,0,0.4,0.1
			s0.1,0.2,0.1,0.2c0,0.1,0,0.2,0,0.2S35.2,5.2,35.2,5.2z M34.7,4.5c0-0.1,0-0.1-0.1-0.2c0,0-0.1-0.1-0.2-0.1h-1
			c-0.1,0-0.1,0-0.2,0.1c0,0-0.1,0.1-0.1,0.2v0.7c0,0.1,0,0.1,0.1,0.2c0,0,0.1,0.1,0.2,0.1h1c0.1,0,0.1,0,0.2-0.1
			c0,0,0.1-0.1,0.1-0.2V4.5z"/>
		<path class="st5" d="M38.2,5.9h-0.5V4.7c0-0.1,0-0.1,0-0.2s-0.1-0.1-0.1-0.1l-0.1-0.1c-0.1,0-0.1,0-0.2,0h-0.9V6h-0.5V4V3.9
			c0,0,0-0.1,0.1-0.1s0.1,0,0.1-0.1h0.1h1.2c0.1,0,0.1,0,0.2,0c0.1,0,0.1,0,0.2,0.1c0.1,0,0.1,0.1,0.2,0.1C37.9,4,38,4,38.1,4.1
			s0.1,0.2,0.1,0.3s0,0.2,0,0.3C38.2,4.7,38.2,5.9,38.2,5.9z"/>
		<path class="st5" d="M41.2,4.4c0,0.1,0,0.2,0,0.2c0,0.1-0.1,0.2-0.1,0.2C41,4.9,41,4.9,40.9,5c-0.1,0-0.2,0.1-0.3,0.1h-1V4.7h1
			c0.1,0,0.1,0,0.2-0.1s0.1-0.1,0.1-0.2s0-0.1-0.1-0.2c0,0-0.1-0.1-0.2-0.1h-1c-0.1,0-0.1,0-0.2,0.1s-0.1,0.1-0.1,0.2v0.8
			c0,0.1,0,0.1,0.1,0.2c0,0,0.1,0.1,0.2,0.1h1V6h-1c-0.1,0-0.2,0-0.2,0c-0.1,0-0.2-0.1-0.2-0.1c-0.1-0.1-0.1-0.1-0.2-0.2
			c0-0.1-0.1-0.2-0.1-0.3v-1c0-0.1,0-0.2,0-0.2C38.9,4.1,39,4,39,4s0.1-0.1,0.2-0.2c0.1,0,0.2-0.1,0.3-0.1h1c0.1,0,0.2,0,0.2,0
			c0.1,0,0.2,0.1,0.2,0.1C41,3.9,41,4,41.1,4.1S41.2,4.3,41.2,4.4z"/>
		<path class="st5" d="M43.7,5.2c0,0.1,0,0.2,0,0.3c0,0.1-0.1,0.1-0.1,0.2s-0.1,0.1-0.1,0.1c-0.1,0-0.1,0.1-0.2,0.1
			c-0.1,0-0.1,0-0.2,0.1C43,6,43,6,42.9,6h-1.4V5.4H43c0.1,0,0.1,0,0.2-0.1c0,0,0.1-0.1,0.1-0.2C43.2,5,43.1,5,43,5h-0.8
			c-0.1,0-0.2,0-0.3-0.1c-0.1,0-0.1-0.1-0.2-0.2c-0.1-0.1-0.1-0.1-0.1-0.2s0-0.1,0-0.2s0-0.2,0.1-0.3c0-0.1,0.1-0.1,0.2-0.2
			C42,3.7,42,3.7,42.1,3.7s0.1,0,0.2,0h1.3v0.5h-1.3c0,0,0,0-0.1,0l0,0l0,0l0,0c0,0,0,0,0,0.1l0,0l0,0l0,0H43c0.1,0,0.3,0,0.3,0.1
			s0.2,0.1,0.2,0.2c0.1,0.1,0.1,0.2,0.1,0.2C43.7,5,43.7,5.1,43.7,5.2z"/>
	</g>
	<g class="st0">
		<path class="st6" d="M14.4,7.8v0.8h-0.1l-0.1-0.2c-0.1,0.1-0.3,0.2-0.5,0.2s-0.4-0.1-0.5-0.2C13.1,8.2,13,8,13,7.8
			c0-0.2,0.1-0.5,0.2-0.6C13.3,7,13.5,7,13.7,7c0.3,0,0.5,0.2,0.6,0.5h-0.2c0-0.1-0.1-0.2-0.2-0.3c-0.1-0.1-0.2-0.1-0.3-0.1
			c-0.2,0-0.3,0.1-0.4,0.2s-0.1,0.3-0.1,0.5c0,0.2,0,0.4,0.1,0.5s0.2,0.2,0.4,0.2c0.1,0,0.2,0,0.3-0.1C14,8.3,14,8.2,14,8.1V8h-0.4
			V7.8H14.4z"/>
		<path class="st6" d="M15.7,8.2h0.2c0,0.1-0.1,0.2-0.2,0.3s-0.2,0.1-0.3,0.1c-0.2,0-0.3-0.1-0.4-0.2c-0.1-0.1-0.2-0.3-0.2-0.5
			s0.1-0.3,0.2-0.5c0.1-0.1,0.2-0.2,0.4-0.2c0.2,0,0.3,0.1,0.4,0.2S16,7.7,16,7.9h-1c0,0.2,0,0.3,0.1,0.4s0.2,0.1,0.3,0.1
			C15.5,8.5,15.6,8.4,15.7,8.2z M15.7,7.9c0-0.1,0-0.1,0-0.2s-0.1-0.1-0.1-0.1s-0.1-0.1-0.2-0.1s-0.2,0-0.2,0.1
			C15,7.7,15,7.7,15,7.9H15.7z"/>
		<path class="st6" d="M17.3,8.6h-0.2V7.8c0-0.1,0-0.2-0.1-0.2s-0.1-0.1-0.2-0.1s-0.2,0-0.2,0.1c-0.1,0.1-0.1,0.2-0.1,0.3v0.7h-0.2
			V7.4h0.2v0.2c0.1-0.2,0.2-0.3,0.4-0.3c0.1,0,0.2,0,0.2,0.1c0.1,0,0.1,0.1,0.1,0.2s0,0.2,0,0.3v0.7H17.3z"/>
		<path class="st6" d="M18.6,8.2h0.2c0,0.1-0.1,0.2-0.2,0.3s-0.2,0.1-0.3,0.1c-0.2,0-0.3-0.1-0.4-0.2c-0.1-0.1-0.2-0.3-0.2-0.5
			s0.1-0.3,0.2-0.5c0.1-0.1,0.2-0.2,0.4-0.2c0.2,0,0.3,0.1,0.4,0.2s0.2,0.3,0.2,0.5H18c0,0.2,0,0.3,0.1,0.4s0.2,0.1,0.3,0.1
			C18.4,8.5,18.5,8.4,18.6,8.2z M18.6,7.9c0-0.1,0-0.1,0-0.2s-0.1-0.1-0.1-0.1s-0.1-0.1-0.2-0.1s-0.2,0-0.2,0.1
			C18,7.7,18,7.8,18,7.9C18,7.9,18.6,7.9,18.6,7.9z"/>
		<path class="st6" d="M19.3,8.6h-0.2V7.4h0.2v0.3c0.1-0.1,0.1-0.2,0.2-0.3c0.1,0,0.1-0.1,0.2-0.1c0,0,0,0,0.1,0v0.2l0,0
			c-0.1,0-0.2,0-0.3,0.1s-0.1,0.2-0.1,0.3v0.7H19.3z"/>
		<path class="st6" d="M21.1,8.6h-0.2c0,0,0-0.1,0-0.2c-0.1,0.2-0.2,0.2-0.4,0.2c-0.1,0-0.2,0-0.3-0.1C20,8.4,20,8.4,20,8.3
			C20,8.1,20,8,20.1,8c0.1-0.1,0.3-0.1,0.5-0.1c0,0,0.1,0,0.2,0c0-0.1,0-0.2,0-0.2s0-0.1-0.1-0.1c0,0-0.1,0-0.2,0
			c-0.2,0-0.3,0.1-0.3,0.2H20c0-0.2,0.2-0.3,0.6-0.3c0.2,0,0.3,0,0.4,0.1c0-0.1,0,0.1,0,0.2v0.5C21,8.4,21,8.5,21.1,8.6z M20.8,8
			c-0.1,0-0.1,0-0.2,0c-0.2,0-0.3,0-0.4,0.1c-0.1,0-0.1,0.1-0.1,0.2c0,0.1,0,0.1,0.1,0.2c0,0,0.1,0.1,0.2,0.1s0.2,0,0.3-0.1
			C20.8,8.3,20.8,8.2,20.8,8L20.8,8z"/>
		<path class="st6" d="M22.5,8.6h-0.2V7.8c0-0.1,0-0.2-0.1-0.2S22.1,7.5,22,7.5s-0.2,0-0.2,0.1c-0.1,0.1-0.1,0.2-0.1,0.3v0.7h-0.2
			V7.4h0.2v0.2c0.1-0.2,0.2-0.3,0.4-0.3c0.1,0,0.2,0,0.2,0.1s0.1,0.1,0.1,0.2s0,0.2,0,0.3v0.7H22.5z"/>
		<path class="st6" d="M23.9,7v1.6h-0.2V8.4c-0.1,0.2-0.2,0.2-0.4,0.2c-0.1,0-0.3-0.1-0.4-0.2s0-0.2,0-0.4s0-0.3,0.1-0.5
			s0.2-0.2,0.4-0.2c0.1,0,0.3,0.1,0.4,0.2V7H23.9z M23.7,7.8c0-0.1,0-0.2-0.1-0.3c-0.1-0.1-0.1-0.1-0.2-0.1s-0.2,0-0.2,0.1
			c-0.1,0.1-0.1,0.2-0.1,0.3c0,0.2,0,0.3,0.1,0.4c0.1,0.1,0.1,0.1,0.2,0.1s0.2,0,0.2-0.1C23.7,8.1,23.7,8,23.7,7.8L23.7,7.8z"/>
		<path class="st6" d="M24.9,8.6c-0.2,0-0.3-0.1-0.4-0.2c-0.1-0.1-0.1-0.3-0.1-0.5s0.1-0.3,0.2-0.5s0.2-0.2,0.4-0.2
			c0.2,0,0.3,0.1,0.4,0.2s0.1,0.3,0.1,0.5s-0.1,0.3-0.2,0.5C25.2,8.6,25,8.6,24.9,8.6z M24.9,8.5c0.1,0,0.2,0,0.2-0.1
			s0.1-0.2,0.1-0.4c0-0.2,0-0.3-0.1-0.4S25,7.5,24.9,7.5s-0.2,0-0.2,0.1c-0.1,0.1-0.1,0.2-0.1,0.4c0,0.2,0,0.3,0.1,0.4
			C24.7,8.4,24.8,8.5,24.9,8.5z"/>
		<path class="st6" d="M26.6,8.6V7h0.7c0.2,0,0.3,0,0.4,0.1s0.1,0.2,0.1,0.3c0,0.2-0.1,0.3-0.3,0.4c0.1,0,0.2,0.1,0.3,0.2
			c0,0,0,0,0,0.1s0,0.2-0.1,0.3s-0.2,0.1-0.4,0.1L26.6,8.6L26.6,8.6z M26.8,7.7h0.4c0.2,0,0.3,0,0.3-0.1c0.1-0.1,0.1-0.1,0.1-0.2
			s0-0.1-0.1-0.2s-0.1-0.1-0.2-0.1h-0.4L26.8,7.7L26.8,7.7z M26.8,8.4h0.5c0.1,0,0.2,0,0.3-0.1c0.1-0.1,0.1-0.1,0.1-0.2
			c0-0.1,0-0.1,0-0.2s-0.1-0.1-0.1-0.1s-0.1,0-0.2,0H27v0.6H26.8z"/>
		<path class="st6" d="M29,8.2h0.2c0,0.1-0.1,0.2-0.2,0.3c-0.1,0.1-0.2,0.1-0.3,0.1c-0.2,0-0.3-0.1-0.4-0.2
			c-0.1-0.1-0.2-0.3-0.2-0.5s0.1-0.3,0.2-0.5c0.1-0.1,0.2-0.2,0.4-0.2c0.2,0,0.3,0.1,0.4,0.2c0.1,0.1,0.2,0.3,0.2,0.5h-0.9
			c0,0.2,0,0.3,0.1,0.4s0.2,0.1,0.3,0.1C28.8,8.5,28.9,8.4,29,8.2z M29,7.9c0-0.1,0-0.1,0-0.2s-0.1-0.1-0.1-0.1s-0.1-0.1-0.2-0.1
			s-0.2,0-0.2,0.1c-0.1,0.1-0.1,0.2-0.1,0.3C28.4,7.9,29,7.9,29,7.9z"/>
		<path class="st6" d="M30.6,8.6h-0.2V7.8c0-0.1,0-0.2-0.1-0.2s-0.1-0.1-0.2-0.1c-0.1,0-0.2,0-0.2,0.1c-0.1,0.1-0.1,0.2-0.1,0.3v0.7
			h-0.2V7.4h0.2v0.2c0.1-0.2,0.2-0.3,0.4-0.3c0.1,0,0.2,0,0.2,0.1c0.1,0,0.1,0.1,0.1,0.2s0,0.2,0,0.3L30.6,8.6L30.6,8.6z"/>
		<path class="st6" d="M31.9,8.2h0.2c0,0.1-0.1,0.2-0.2,0.3c-0.1,0.1-0.2,0.1-0.3,0.1c-0.2,0-0.3-0.1-0.4-0.2
			C31,8.3,30.9,8.2,30.9,8s0.1-0.3,0.2-0.5c0.1-0.1,0.2-0.2,0.4-0.2s0.3,0.1,0.4,0.2C32,7.6,32.1,7.8,32.1,8h-0.9
			c0,0.2,0,0.3,0.1,0.4c0.1,0.1,0.2,0.1,0.3,0.1C31.7,8.5,31.8,8.4,31.9,8.2z M31.9,7.9c0-0.1,0-0.1,0-0.2s-0.1-0.1-0.1-0.1
			c-0.1,0-0.1-0.1-0.2-0.1c-0.1,0-0.2,0-0.2,0.1c-0.1,0.1-0.1,0.2-0.1,0.3C31.3,7.9,31.9,7.9,31.9,7.9z"/>
		<path class="st6" d="M33,7.4L33,7.4l-0.3,0.1v1.1h-0.2V7.5h-0.2V7.4h0.2c0-0.2,0-0.3,0.1-0.4s0.2-0.1,0.3-0.1s0.1,0,0.2,0V7H33
			c-0.1,0-0.1,0-0.2,0.1s-0.1,0.1-0.1,0.2l0,0H33V7.4z"/>
		<path class="st6" d="M33.5,7v0.2h-0.2V7H33.5z M33.5,7.4v1.2h-0.2V7.4H33.5z"/>
		<path class="st6" d="M34.7,8.2h0.2c0,0.1-0.1,0.2-0.2,0.3s-0.2,0.1-0.3,0.1c-0.2,0-0.3-0.1-0.4-0.2c-0.1-0.1-0.1-0.3-0.1-0.4
			c0-0.2,0-0.3,0.1-0.5c0.1-0.1,0.2-0.2,0.4-0.2c0.1,0,0.2,0,0.3,0.1s0.1,0.2,0.2,0.3h-0.2c0-0.2-0.1-0.3-0.3-0.3
			c-0.1,0-0.2,0-0.2,0.1c-0.1,0.1-0.1,0.2-0.1,0.3c0,0.2,0,0.3,0.1,0.4c0.1,0.1,0.1,0.1,0.2,0.1C34.6,8.5,34.7,8.4,34.7,8.2z"/>
		<path class="st6" d="M35.5,7v0.2h-0.2V7H35.5z M35.5,7.4v1.2h-0.2V7.4H35.5z"/>
		<path class="st6" d="M36.4,8.6c-0.2,0-0.3-0.1-0.4-0.2c-0.1-0.1-0.1-0.3-0.1-0.5s0.1-0.3,0.2-0.5c0.1-0.1,0.2-0.2,0.4-0.2
			s0.3,0.1,0.4,0.2C36.9,7.6,37,7.8,37,8s-0.1,0.3-0.2,0.5C36.7,8.6,36.5,8.6,36.4,8.6z M36.4,8.5c0.1,0,0.2,0,0.2-0.1
			s0.1-0.2,0.1-0.4c0-0.2,0-0.3-0.1-0.4s-0.2-0.1-0.2-0.1c-0.1,0-0.2,0-0.2,0.1S36,7.8,36,8s0,0.3,0.1,0.4S36.3,8.5,36.4,8.5z"/>
		<path class="st6" d="M37.2,8.3h0.2c0,0.2,0.2,0.2,0.4,0.2c0.1,0,0.1,0,0.2-0.1c0,0,0-0.1,0-0.1c0-0.1-0.1-0.2-0.2-0.2h-0.3
			c-0.1,0-0.2-0.1-0.2-0.1c-0.1-0.1-0.1-0.1-0.1-0.2s0-0.2,0.1-0.3s0.2-0.1,0.3-0.1c0.3,0,0.4,0.1,0.5,0.3h-0.2
			c-0.1-0.1-0.2-0.2-0.3-0.2s-0.1,0-0.2,0c-0.1,0-0.1,0.1-0.1,0.1c0,0.1,0.1,0.1,0.2,0.2h0.2c0.3,0,0.4,0.2,0.4,0.4
			c0,0.1,0,0.2-0.1,0.3s-0.2,0.1-0.4,0.1S37.2,8.5,37.2,8.3z"/>
	</g>
</g>
<g>
	<path class="st4" d="M13.5,7.3h-0.6V2.7h0.6V7.3z"/>
	<path class="st4" d="M18,7.3h-0.6V4.6l-1.1,2.6c0,0.1-0.1,0.1-0.1,0.2s-0.1,0.1-0.1,0.1c-0.1,0-0.1,0-0.1-0.1s-0.1-0.1-0.1-0.2
		l-1.1-2.6v2.8h-0.6V3c0-0.1,0-0.2,0.1-0.3s0.1-0.1,0.2-0.2c0,0,0.1,0,0.1,0s0.1,0,0.1,0c0,0,0.1,0,0.1,0.1s0,0.1,0.1,0.1l1.4,3.4
		l1.4-3.4c0-0.1,0.1-0.1,0.1-0.2c0.1,0,0.1,0,0.2,0c0.1,0,0.1,0.1,0.2,0.2C18,2.8,18,2.9,18,3V7.3z"/>
	<path class="st4" d="M21.8,6c0,0.2,0,0.3,0,0.5c0,0.1-0.1,0.3-0.1,0.4c0,0.1-0.1,0.2-0.2,0.3c-0.1,0.1-0.1,0.1-0.2,0.2
		s-0.1,0.1-0.2,0.1s-0.1,0-0.2,0h-2.3V6.5h2.3c0.1,0,0.2,0,0.3-0.1c0.1-0.1,0.1-0.2,0.1-0.4c0-0.1,0-0.1,0-0.2c0-0.1,0-0.1-0.1-0.2
		c0,0-0.1-0.1-0.1-0.1s-0.1,0-0.1,0h-1.4c-0.1,0-0.2,0-0.3-0.1c-0.1,0-0.2-0.1-0.3-0.2c-0.1-0.1-0.2-0.3-0.2-0.4S18.6,4.3,18.6,4
		s0-0.5,0.1-0.6c0.1-0.2,0.1-0.3,0.2-0.4c0.1-0.1,0.2-0.2,0.3-0.2c0.1,0,0.2-0.1,0.3-0.1h2v0.8h-2c-0.1,0-0.2,0-0.3,0.1
		c-0.1,0.1-0.1,0.2-0.1,0.4c0,0.2,0,0.3,0.1,0.4c0.1,0.1,0.2,0.1,0.3,0.1h1.4h0c0.1,0,0.1,0,0.2,0c0.1,0,0.1,0.1,0.2,0.1
		s0.1,0.1,0.2,0.2c0.1,0.1,0.1,0.2,0.2,0.3s0.1,0.2,0.1,0.4S21.8,5.8,21.8,6z"/>
	<path class="st4" d="M25,6.1c0,0.1,0,0.3,0,0.4c0,0.1-0.1,0.2-0.1,0.3c0,0.1-0.1,0.2-0.1,0.2c-0.1,0.1-0.1,0.1-0.2,0.2
		c-0.1,0-0.1,0.1-0.2,0.1c-0.1,0-0.1,0-0.2,0h-1.1c-0.1,0-0.2,0-0.3-0.1c-0.1,0-0.2-0.1-0.3-0.2c-0.1-0.1-0.2-0.2-0.2-0.4
		c-0.1-0.2-0.1-0.3-0.1-0.6V5c0-0.2,0-0.4,0.1-0.6c0.1-0.2,0.1-0.3,0.2-0.4c0.1-0.1,0.2-0.2,0.3-0.2s0.2-0.1,0.3-0.1h1.1
		c0.2,0,0.3,0,0.4,0.1c0.1,0.1,0.2,0.2,0.3,0.3c0.1,0.1,0.1,0.2,0.1,0.4c0,0.1,0,0.3,0,0.4V6.1z M24.4,5c0-0.1,0-0.2-0.1-0.3
		c0-0.1-0.1-0.1-0.2-0.1h-1.1c-0.1,0-0.1,0-0.2,0.1c0,0.1-0.1,0.1-0.1,0.3v1.1c0,0.1,0,0.2,0.1,0.3c0,0.1,0.1,0.1,0.2,0.1h1.1
		c0.1,0,0.1,0,0.2-0.1c0-0.1,0.1-0.1,0.1-0.3V5z"/>
	<path class="st4" d="M26.5,7.3h-0.3c-0.1,0-0.2,0-0.3-0.1c-0.1,0-0.2-0.1-0.3-0.2c-0.1-0.1-0.2-0.2-0.2-0.4
		c-0.1-0.2-0.1-0.3-0.1-0.6V2.3H26v3.8c0,0.1,0,0.2,0.1,0.2c0,0.1,0.1,0.1,0.2,0.1h0.3V7.3z"/>
	<path class="st4" d="M29.6,6.9c0,0.1,0,0.1,0,0.2c0,0.1,0,0.1-0.1,0.1c0,0-0.1,0.1-0.1,0.1c0,0-0.1,0-0.1,0h-1.3
		c-0.1,0-0.2,0-0.2,0c-0.1,0-0.2-0.1-0.2-0.1c-0.1-0.1-0.2-0.1-0.2-0.2c-0.1-0.1-0.1-0.2-0.2-0.3c-0.1-0.1-0.1-0.3-0.1-0.4
		c0-0.2-0.1-0.3-0.1-0.5v-2h0.6v2c0,0.1,0,0.2,0,0.3c0,0.1,0.1,0.2,0.1,0.2s0.1,0.1,0.2,0.1c0.1,0,0.1,0.1,0.2,0.1h1V3.8h0.6V6.9z"
		/>
	<path class="st4" d="M32.5,7.3h-1.6c-0.1,0-0.2,0-0.3-0.1c-0.1,0-0.2-0.1-0.3-0.2c-0.1-0.1-0.2-0.2-0.2-0.4
		c-0.1-0.2-0.1-0.3-0.1-0.6V5c0-0.1,0-0.2,0-0.3c0-0.1,0-0.2,0.1-0.3c0-0.1,0.1-0.2,0.1-0.3s0.1-0.2,0.2-0.2
		c0.1-0.1,0.1-0.1,0.2-0.1c0.1,0,0.2-0.1,0.3-0.1h1.6v0.8h-1.6c-0.1,0-0.1,0-0.2,0.1c0,0.1-0.1,0.1-0.1,0.3v1.1c0,0.1,0,0.2,0.1,0.3
		c0,0.1,0.1,0.1,0.2,0.1h1.6V7.3z"/>
	<path class="st4" d="M33.6,3.1H33V2.3h0.6V3.1z M33.6,7.3H33V3.8h0.6V7.3z"/>
	<path class="st4" d="M36.9,6.1c0,0.1,0,0.3,0,0.4c0,0.1-0.1,0.2-0.1,0.3c0,0.1-0.1,0.2-0.1,0.2c-0.1,0.1-0.1,0.1-0.2,0.2
		s-0.1,0.1-0.2,0.1c-0.1,0-0.1,0-0.2,0H35c-0.1,0-0.2,0-0.3-0.1c-0.1,0-0.2-0.1-0.3-0.2c-0.1-0.1-0.2-0.2-0.2-0.4
		c-0.1-0.2-0.1-0.3-0.1-0.6V5c0-0.2,0-0.4,0.1-0.6c0.1-0.2,0.1-0.3,0.2-0.4c0.1-0.1,0.2-0.2,0.3-0.2s0.2-0.1,0.3-0.1H36
		c0.2,0,0.3,0,0.4,0.1c0.1,0.1,0.2,0.2,0.3,0.3c0.1,0.1,0.1,0.2,0.1,0.4c0,0.1,0,0.3,0,0.4V6.1z M36.3,5c0-0.1,0-0.2-0.1-0.3
		c0-0.1-0.1-0.1-0.2-0.1H35c-0.1,0-0.1,0-0.2,0.1c0,0.1-0.1,0.1-0.1,0.3v1.1c0,0.1,0,0.2,0.1,0.3s0.1,0.1,0.2,0.1H36
		c0.1,0,0.1,0,0.2-0.1s0.1-0.1,0.1-0.3V5z M36.7,2.7l-1.2,0.6l-0.2-0.5L36.5,2L36.7,2.7z"/>
	<path class="st4" d="M40.1,7.3h-0.6v-2c0-0.1,0-0.2,0-0.3c0-0.1-0.1-0.2-0.1-0.2c0-0.1-0.1-0.1-0.2-0.1c-0.1,0-0.1-0.1-0.2-0.1h-1
		v2.7h-0.6V4.2c0-0.1,0-0.1,0-0.2c0-0.1,0-0.1,0.1-0.1c0,0,0.1-0.1,0.1-0.1s0.1,0,0.1,0H39c0.1,0,0.2,0,0.2,0s0.2,0.1,0.2,0.1
		c0.1,0.1,0.2,0.1,0.2,0.2c0.1,0.1,0.1,0.2,0.2,0.3C40,4.6,40,4.7,40.1,4.9c0,0.2,0.1,0.3,0.1,0.5V7.3z"/>
	<path class="st4" d="M43.3,5c0,0.1,0,0.2,0,0.4c0,0.1-0.1,0.3-0.1,0.4C43,5.9,42.9,5.9,42.8,6s-0.2,0.1-0.4,0.1h-1.1V5.3h1.1
		c0.1,0,0.1,0,0.2-0.1c0-0.1,0.1-0.2,0.1-0.3c0-0.1,0-0.2-0.1-0.3c0-0.1-0.1-0.1-0.2-0.1h-1.1c-0.1,0-0.1,0-0.2,0.1
		c0,0.1-0.1,0.2-0.1,0.3v1.2c0,0.1,0,0.2,0.1,0.3c0,0.1,0.1,0.1,0.2,0.1h1.1v0.8h-1.1c-0.1,0-0.2,0-0.3-0.1c-0.1,0-0.2-0.1-0.3-0.2
		c-0.1-0.1-0.1-0.2-0.2-0.4c-0.1-0.1-0.1-0.3-0.1-0.5V5c0-0.1,0-0.2,0-0.4c0-0.1,0.1-0.3,0.1-0.4C40.8,4.1,40.9,4,41,3.9
		c0.1-0.1,0.2-0.1,0.4-0.1h1.1c0.1,0,0.2,0,0.3,0.1S42.9,4,43,4.1c0.1,0.1,0.1,0.2,0.2,0.4C43.3,4.6,43.3,4.8,43.3,5z"/>
	<path class="st4" d="M46.1,6.1c0,0.1,0,0.3,0,0.4c0,0.1-0.1,0.2-0.1,0.3c0,0.1-0.1,0.2-0.1,0.2c-0.1,0.1-0.1,0.1-0.2,0.2
		s-0.1,0.1-0.2,0.1c-0.1,0-0.1,0-0.2,0h-1.6V6.5h1.6c0.1,0,0.1,0,0.2-0.1s0.1-0.1,0.1-0.3c0-0.2-0.1-0.3-0.2-0.3h-0.9
		c-0.1,0-0.2,0-0.3-0.1c-0.1-0.1-0.2-0.1-0.2-0.2s-0.1-0.2-0.1-0.3c0-0.1,0-0.2,0-0.3c0-0.2,0-0.3,0.1-0.5c0-0.1,0.1-0.2,0.2-0.3
		C43.9,4,44,3.9,44.1,3.9c0.1,0,0.2-0.1,0.2-0.1h1.5v0.8h-1.5c0,0-0.1,0-0.1,0c0,0,0,0,0,0c0,0,0,0,0,0.1c0,0,0,0,0,0.1
		c0,0,0,0.1,0,0.1s0,0,0,0c0,0,0,0,0,0c0,0,0,0,0,0h0.9c0.2,0,0.3,0,0.4,0.1c0.1,0.1,0.2,0.2,0.3,0.3C45.9,5.5,46,5.6,46,5.8
		C46,5.9,46.1,6,46.1,6.1z"/>
</g>
<g>
	<path d="M14.6,10.2c-0.1,0.1-0.2,0.2-0.3,0.3c-0.1,0.1-0.3,0.1-0.5,0.1c-0.3,0-0.5-0.1-0.6-0.2c-0.2-0.2-0.2-0.4-0.2-0.7V8.9
		c0-0.3,0.1-0.5,0.2-0.7C13.3,8,13.5,8,13.8,8C14,8,14.2,8,14.4,8.2c0.1,0.1,0.2,0.3,0.2,0.6l0,0h-0.3c0-0.2,0-0.3-0.1-0.4
		c-0.1-0.1-0.2-0.1-0.3-0.1c-0.2,0-0.3,0.1-0.4,0.2c-0.1,0.1-0.1,0.3-0.1,0.5v0.8c0,0.2,0,0.4,0.1,0.5c0.1,0.1,0.2,0.2,0.4,0.2
		c0.1,0,0.2,0,0.3-0.1c0.1,0,0.1-0.1,0.2-0.1V9.5h-0.5V9.3h0.8V10.2z"/>
	<path d="M15.7,10.6c-0.2,0-0.4-0.1-0.5-0.3s-0.2-0.4-0.2-0.7V9.6c0-0.3,0.1-0.5,0.2-0.7c0.1-0.2,0.3-0.3,0.5-0.3
		c0.2,0,0.4,0.1,0.5,0.2s0.2,0.4,0.2,0.6v0.2h-1c0,0.2,0,0.4,0.1,0.5s0.2,0.2,0.3,0.2c0.1,0,0.2,0,0.3,0c0.1,0,0.1-0.1,0.2-0.1
		l0.1,0.2c-0.1,0.1-0.1,0.1-0.2,0.2C15.9,10.6,15.8,10.6,15.7,10.6z M15.6,8.9c-0.1,0-0.2,0-0.2,0.1c-0.1,0.1-0.1,0.2-0.1,0.4h0.7v0
		c0-0.1,0-0.3-0.1-0.4C15.8,8.9,15.7,8.9,15.6,8.9z"/>
	<path d="M16.9,8.6l0,0.3C17,8.8,17,8.8,17.1,8.7c0.1-0.1,0.2-0.1,0.3-0.1c0.2,0,0.3,0.1,0.4,0.2c0.1,0.1,0.1,0.3,0.1,0.6v1.2h-0.3
		V9.4c0-0.2,0-0.3-0.1-0.4c0-0.1-0.1-0.1-0.2-0.1c-0.1,0-0.1,0-0.2,0.1C17,9,17,9.1,16.9,9.1v1.4h-0.3V8.6H16.9z"/>
	<path d="M19,10.6c-0.2,0-0.4-0.1-0.5-0.3c-0.1-0.2-0.2-0.4-0.2-0.7V9.6c0-0.3,0.1-0.5,0.2-0.7s0.3-0.3,0.5-0.3
		c0.2,0,0.4,0.1,0.5,0.2c0.1,0.2,0.2,0.4,0.2,0.6v0.2h-1c0,0.2,0,0.4,0.1,0.5c0.1,0.1,0.2,0.2,0.3,0.2c0.1,0,0.2,0,0.3,0
		c0.1,0,0.1-0.1,0.2-0.1l0.1,0.2c-0.1,0.1-0.1,0.1-0.2,0.2C19.2,10.6,19.1,10.6,19,10.6z M18.9,8.9c-0.1,0-0.2,0-0.2,0.1
		s-0.1,0.2-0.1,0.4h0.7v0c0-0.1,0-0.3-0.1-0.4C19.1,8.9,19,8.9,18.9,8.9z"/>
	<path d="M20.7,8.9l-0.1,0c-0.1,0-0.1,0-0.2,0.1c0,0-0.1,0.1-0.1,0.2v1.4h-0.3V8.6h0.3l0,0.3c0-0.1,0.1-0.2,0.2-0.2
		c0.1-0.1,0.1-0.1,0.2-0.1c0,0,0,0,0.1,0c0,0,0,0,0.1,0L20.7,8.9z"/>
	<path d="M21.9,10.6c0-0.1,0-0.1,0-0.2s0-0.1,0-0.1c0,0.1-0.1,0.2-0.2,0.2c-0.1,0.1-0.2,0.1-0.3,0.1c-0.2,0-0.3-0.1-0.4-0.2
		c-0.1-0.1-0.1-0.2-0.1-0.4c0-0.2,0.1-0.3,0.2-0.4c0.1-0.1,0.3-0.2,0.5-0.2h0.3V9.3c0-0.1,0-0.2-0.1-0.3c-0.1-0.1-0.1-0.1-0.2-0.1
		c-0.1,0-0.2,0-0.2,0.1s-0.1,0.1-0.1,0.2l-0.3,0l0,0c0-0.1,0-0.3,0.2-0.4c0.1-0.1,0.3-0.2,0.5-0.2c0.2,0,0.3,0.1,0.4,0.2
		c0.1,0.1,0.2,0.3,0.2,0.5v0.9c0,0.1,0,0.1,0,0.2s0,0.1,0,0.2H21.9z M21.5,10.3c0.1,0,0.2,0,0.3-0.1c0.1-0.1,0.1-0.1,0.1-0.2V9.7
		h-0.3c-0.1,0-0.2,0-0.3,0.1c-0.1,0.1-0.1,0.2-0.1,0.3c0,0.1,0,0.2,0.1,0.2C21.3,10.3,21.4,10.3,21.5,10.3z"/>
	<path d="M22.9,8.6l0,0.3c0.1-0.1,0.1-0.2,0.2-0.2c0.1-0.1,0.2-0.1,0.3-0.1c0.2,0,0.3,0.1,0.4,0.2c0.1,0.1,0.1,0.3,0.1,0.6v1.2h-0.3
		V9.4c0-0.2,0-0.3-0.1-0.4s-0.1-0.1-0.2-0.1c-0.1,0-0.1,0-0.2,0.1C23,9,23,9.1,23,9.1v1.4h-0.3V8.6H22.9z"/>
	<path d="M24.3,9.6c0-0.3,0.1-0.6,0.2-0.7c0.1-0.2,0.3-0.3,0.5-0.3c0.1,0,0.2,0,0.2,0.1c0.1,0,0.1,0.1,0.2,0.2v-1h0.3v2.8h-0.3
		l0-0.2c-0.1,0.1-0.1,0.2-0.2,0.2c-0.1,0-0.2,0.1-0.3,0.1c-0.2,0-0.3-0.1-0.5-0.3C24.3,10.2,24.3,9.9,24.3,9.6L24.3,9.6z M24.6,9.7
		c0,0.2,0,0.4,0.1,0.5c0.1,0.1,0.1,0.2,0.3,0.2c0.1,0,0.1,0,0.2-0.1c0.1,0,0.1-0.1,0.1-0.2V9.2c0-0.1-0.1-0.1-0.1-0.2
		c-0.1,0-0.1-0.1-0.2-0.1c-0.1,0-0.2,0.1-0.3,0.2C24.6,9.2,24.6,9.4,24.6,9.7L24.6,9.7z"/>
	<path d="M26,9.6c0-0.3,0.1-0.5,0.2-0.7c0.1-0.2,0.3-0.3,0.5-0.3c0.2,0,0.4,0.1,0.5,0.3c0.1,0.2,0.2,0.4,0.2,0.7v0
		c0,0.3-0.1,0.5-0.2,0.7s-0.3,0.3-0.5,0.3c-0.2,0-0.4-0.1-0.5-0.3C26,10.2,26,9.9,26,9.6L26,9.6z M26.3,9.6c0,0.2,0,0.4,0.1,0.5
		c0.1,0.1,0.2,0.2,0.3,0.2c0.1,0,0.2-0.1,0.3-0.2c0.1-0.1,0.1-0.3,0.1-0.5v0c0-0.2,0-0.4-0.1-0.5s-0.2-0.2-0.3-0.2S26.5,9,26.4,9.1
		C26.4,9.2,26.3,9.4,26.3,9.6L26.3,9.6z"/>
	<path d="M28.6,10.6V8h0.7c0.2,0,0.4,0.1,0.6,0.2C29.9,8.3,30,8.5,30,8.7c0,0.1,0,0.2-0.1,0.3c-0.1,0.1-0.1,0.2-0.2,0.2
		c0.1,0,0.3,0.1,0.3,0.2c0.1,0.1,0.1,0.3,0.1,0.4c0,0.2-0.1,0.4-0.2,0.5c-0.1,0.1-0.3,0.2-0.5,0.2H28.6z M28.9,9.1h0.4
		c0.1,0,0.2,0,0.3-0.1c0.1-0.1,0.1-0.2,0.1-0.3c0-0.1,0-0.2-0.1-0.3c-0.1-0.1-0.2-0.1-0.3-0.1h-0.3V9.1z M28.9,9.4v0.9h0.5
		c0.1,0,0.2,0,0.3-0.1c0.1-0.1,0.1-0.2,0.1-0.3c0-0.1,0-0.3-0.1-0.3c-0.1-0.1-0.2-0.1-0.3-0.1h0H28.9z"/>
	<path d="M31.1,10.6c-0.2,0-0.4-0.1-0.5-0.3c-0.1-0.2-0.2-0.4-0.2-0.7V9.6c0-0.3,0.1-0.5,0.2-0.7c0.1-0.2,0.3-0.3,0.5-0.3
		c0.2,0,0.4,0.1,0.5,0.2c0.1,0.2,0.2,0.4,0.2,0.6v0.2h-1c0,0.2,0,0.4,0.1,0.5c0.1,0.1,0.2,0.2,0.3,0.2c0.1,0,0.2,0,0.3,0
		c0.1,0,0.1-0.1,0.2-0.1l0.1,0.2c-0.1,0.1-0.1,0.1-0.2,0.2C31.4,10.6,31.2,10.6,31.1,10.6z M31.1,8.9c-0.1,0-0.2,0-0.2,0.1
		c-0.1,0.1-0.1,0.2-0.1,0.4h0.7v0c0-0.1,0-0.3-0.1-0.4C31.3,8.9,31.2,8.9,31.1,8.9z"/>
	<path d="M32.3,8.6l0,0.3c0.1-0.1,0.1-0.2,0.2-0.2c0.1-0.1,0.2-0.1,0.3-0.1c0.2,0,0.3,0.1,0.4,0.2c0.1,0.1,0.1,0.3,0.1,0.6v1.2H33
		V9.4c0-0.2,0-0.3-0.1-0.4c0-0.1-0.1-0.1-0.2-0.1c-0.1,0-0.1,0-0.2,0.1c-0.1,0-0.1,0.1-0.1,0.2v1.4H32V8.6H32.3z"/>
	<path d="M34.4,10.6c-0.2,0-0.4-0.1-0.5-0.3c-0.1-0.2-0.2-0.4-0.2-0.7V9.6c0-0.3,0.1-0.5,0.2-0.7s0.3-0.3,0.5-0.3s0.4,0.1,0.5,0.2
		C35,9,35,9.2,35,9.5v0.2h-1c0,0.2,0,0.4,0.1,0.5c0.1,0.1,0.2,0.2,0.3,0.2c0.1,0,0.2,0,0.3,0c0.1,0,0.1-0.1,0.2-0.1l0.1,0.2
		c-0.1,0.1-0.1,0.1-0.2,0.2C34.7,10.6,34.5,10.6,34.4,10.6z M34.4,8.9c-0.1,0-0.2,0-0.2,0.1S34,9.3,34,9.4h0.7v0
		c0-0.1,0-0.3-0.1-0.4C34.6,8.9,34.5,8.9,34.4,8.9z"/>
	<path d="M35.4,10.6V8.9h-0.2V8.6h0.2V8.5c0-0.2,0.1-0.4,0.2-0.5c0.1-0.1,0.3-0.2,0.5-0.2c0.1,0,0.1,0,0.2,0c0.1,0,0.1,0,0.2,0.1
		l-0.1,0.3c-0.1,0-0.1,0-0.2-0.1c-0.1,0-0.1,0-0.2,0c-0.1,0-0.2,0-0.2,0.1c-0.1,0.1-0.1,0.2-0.1,0.3v0.2h0.3v0.3h-0.3v1.7H35.4z
		 M36.7,10.6h-0.3V8.6h0.3V10.6z"/>
	<path d="M37.7,10.3c0.1,0,0.2,0,0.2-0.1C38,10.2,38,10.1,38,9.9h0.3l0,0c0,0.2-0.1,0.3-0.2,0.5c-0.1,0.1-0.3,0.2-0.4,0.2
		c-0.2,0-0.4-0.1-0.5-0.3S37,9.9,37,9.6V9.6c0-0.3,0.1-0.5,0.2-0.7s0.3-0.3,0.5-0.3c0.2,0,0.3,0.1,0.4,0.2c0.1,0.1,0.2,0.3,0.2,0.5
		l0,0H38C38,9.2,38,9.1,38,9c-0.1-0.1-0.1-0.1-0.2-0.1c-0.1,0-0.2,0.1-0.3,0.2c-0.1,0.1-0.1,0.3-0.1,0.5v0.1c0,0.2,0,0.4,0.1,0.5
		C37.5,10.3,37.6,10.3,37.7,10.3z"/>
	<path d="M39,8.1h-0.3V7.8H39V8.1z M39,10.6h-0.3V8.6H39V10.6z"/>
	<path d="M39.4,9.6c0-0.3,0.1-0.5,0.2-0.7s0.3-0.3,0.5-0.3c0.2,0,0.4,0.1,0.5,0.3c0.1,0.2,0.2,0.4,0.2,0.7v0c0,0.3-0.1,0.5-0.2,0.7
		s-0.3,0.3-0.5,0.3c-0.2,0-0.4-0.1-0.5-0.3S39.4,9.9,39.4,9.6L39.4,9.6z M39.7,9.6c0,0.2,0,0.4,0.1,0.5c0.1,0.1,0.2,0.2,0.3,0.2
		c0.1,0,0.2-0.1,0.3-0.2c0.1-0.1,0.1-0.3,0.1-0.5v0c0-0.2,0-0.4-0.1-0.5s-0.2-0.2-0.3-0.2S39.9,9,39.8,9.1
		C39.8,9.2,39.7,9.4,39.7,9.6L39.7,9.6z"/>
	<path d="M42.1,10.1c0-0.1,0-0.1-0.1-0.2s-0.1-0.1-0.3-0.2c-0.2-0.1-0.3-0.2-0.4-0.2c-0.1-0.1-0.1-0.2-0.1-0.3
		c0-0.1,0.1-0.3,0.2-0.4c0.1-0.1,0.3-0.2,0.4-0.2c0.2,0,0.3,0.1,0.5,0.2c0.1,0.1,0.2,0.3,0.2,0.4l0,0h-0.3C42.1,9.1,42,9,42,9
		c-0.1-0.1-0.1-0.1-0.2-0.1c-0.1,0-0.2,0-0.2,0.1c0,0.1-0.1,0.1-0.1,0.2c0,0.1,0,0.1,0.1,0.2c0,0,0.1,0.1,0.3,0.2
		c0.2,0.1,0.3,0.2,0.4,0.2c0.1,0.1,0.1,0.2,0.1,0.4c0,0.2-0.1,0.3-0.2,0.4c-0.1,0.1-0.3,0.1-0.5,0.1c-0.2,0-0.4-0.1-0.5-0.2
		c-0.1-0.1-0.2-0.3-0.2-0.4l0,0h0.3c0,0.1,0,0.2,0.1,0.3c0.1,0.1,0.1,0.1,0.2,0.1c0.1,0,0.2,0,0.2-0.1C42,10.2,42.1,10.2,42.1,10.1z
		"/>
</g>
</svg>
